# xmcd
#
# Track frame offsets: 
#        150
#        19096
#        40097
#        62799
#        90065
#        108222
#        133474
#        155016
#        182157
#        202501
#        227748
#
# Disc length: 3250 seconds
#
# Revision: 0
# Processed by: cddbd v1.5.2PL0 Copyright (c) Steve Scherf et al.
# Submitted via: ExactAudioCopy v0.99pb3
#
DISCID=840cb00b
DTITLE=Mighty Sam McClain and Knut Reiersrud - One Drop Is Plenty
DYEAR=2011
DGENRE=Blues
TTITLE0=Life
TTITLE1=Can You Stand The Test Of Love
TTITLE2=One Drop Is Plenty
TTITLE3=You Don't Know Nothing About Love
TTITLE4=Sweet Soft Kisses In The Rain
TTITLE5=Learn How To Love You Again
TTITLE6=Long Time Running
TTITLE7=I Don't Feel Noway Tired
TTITLE8=Love One Another
TTITLE9=Proceed
TTITLE10=Open Up Heavens Doors
EXTD=
EXTT0=
EXTT1=
EXTT2=
EXTT3=
EXTT4=
EXTT5=
EXTT6=
EXTT7=
EXTT8=
EXTT9=
EXTT10=
PLAYORDER=
